HIERARCHY
ROOT hip
{
  OFFSET 0 90.174 2.4664
  CHANNELS 6 Xposition Yposition Zposition Zrotation Xrotation Yrotation
  JOINT abdomen
  {
    OFFSET 0 -1.186 -1.5018
    CHANNELS 6 Xposition Yposition Zposition Zrotation Xrotation Yrotation
    JOINT abdomen2
    {
      OFFSET 0 9.964 0.2134
      CHANNELS 6 Xposition Yposition Zposition Zrotation Xrotation Yrotation
      JOINT chest
      {
        OFFSET 0 13.134 -3.2573
        CHANNELS 6 Xposition Yposition Zposition Zrotation Xrotation Yrotation
        JOINT neck
        {
          OFFSET 0 20.686 -1.6905
          CHANNELS 6 Xposition Yposition Zposition Zrotation Xrotation Yrotation
          JOINT head
          {
            OFFSET 0 7.238 -0.1237
            CHANNELS 6 Xposition Yposition Zposition Zrotation Xrotation Yrotation
            End Site
            {
              OFFSET 0 0 0
            }
          }
        }
        JOINT lCollar
        {
          OFFSET 1.7069 20.075 5.0056
          CHANNELS 6 Xposition Yposition Zposition Zrotation Xrotation Yrotation
          JOINT lShldr
          {
            OFFSET 13.6458 -0.047 -4.849
            CHANNELS 6 Xposition Yposition Zposition Zrotation Xrotation Yrotation
            JOINT lForeArm
            {
              OFFSET 28.3255 -0.9759 2.2888
              CHANNELS 6 Xposition Yposition Zposition Zrotation Xrotation Yrotation
              JOINT lHand
              {
                OFFSET 22.1583 -0.53 10.8316
                CHANNELS 6 Xposition Yposition Zposition Zrotation Xrotation Yrotation
                JOINT lThumb1
                {
                  OFFSET 0.786 0.112 2.5817
                  CHANNELS 6 Xposition Yposition Zposition Zrotation Xrotation Yrotation
                  JOINT lThumb2
                  {
                    OFFSET 0.3601 -0.878 4.2331
                    CHANNELS 6 Xposition Yposition Zposition Zrotation Xrotation Yrotation
                    JOINT lThumb2_End
                    {
                      OFFSET 1.8127 -1.216 2.2227
                      CHANNELS 6 Xposition Yposition Zposition Zrotation Xrotation Yrotation
                      End Site
                      {
                        OFFSET 0.0181 -0.0122 0.0222
                      }
                    }
                  }
                }
                JOINT lCarpal1
                {
                  OFFSET 0.9571 1.114 1.7695
                  CHANNELS 6 Xposition Yposition Zposition Zrotation Xrotation Yrotation
                  JOINT lIndex1
                  {
                    OFFSET 4.1246 0.487 4.1451
                    CHANNELS 6 Xposition Yposition Zposition Zrotation Xrotation Yrotation
                    JOINT lIndex2
                    {
                      OFFSET 3.4052 -1.454 2.7682
                      CHANNELS 6 Xposition Yposition Zposition Zrotation Xrotation Yrotation
                      JOINT lIndex2_End
                      {
                        OFFSET 1.4531 -1.795 1.2713
                        CHANNELS 6 Xposition Yposition Zposition Zrotation Xrotation Yrotation
                        End Site
                        {
                          OFFSET 0.0145 -0.0179 0.0127
                        }
                      }
                    }
                  }
                  JOINT lMid1
                  {
                    OFFSET 5.6954 0.21 2.1184
                    CHANNELS 6 Xposition Yposition Zposition Zrotation Xrotation Yrotation
                    JOINT lMid2
                    {
                      OFFSET 3.9766 -1.54 2.3863
                      CHANNELS 6 Xposition Yposition Zposition Zrotation Xrotation Yrotation
                      JOINT lMid2_End
                      {
                        OFFSET 1.4042 -1.926 1.125
                        CHANNELS 6 Xposition Yposition Zposition Zrotation Xrotation Yrotation
                        End Site
                        {
                          OFFSET 0.014 -0.0193 0.0113
                        }
                      }
                    }
                  }
                }
                JOINT lCarpal2
                {
                  OFFSET 2.0956 0.66 -0.3894
                  CHANNELS 6 Xposition Yposition Zposition Zrotation Xrotation Yrotation
                  JOINT lRing1
                  {
                    OFFSET 5.0395 -0.09 2.4971
                    CHANNELS 6 Xposition Yposition Zposition Zrotation Xrotation Yrotation
                    JOINT lRing2
                    {
                      OFFSET 3.7921 -1.552 1.4806
                      CHANNELS 6 Xposition Yposition Zposition Zrotation Xrotation Yrotation
                      JOINT lRing2_End
                      {
                        OFFSET 1.4655 -1.808 0.9609
                        CHANNELS 6 Xposition Yposition Zposition Zrotation Xrotation Yrotation
                        End Site
                        {
                          OFFSET 0.0147 -0.0181 0.0096
                        }
                      }
                    }
                  }
                  JOINT lPinky1
                  {
                    OFFSET 4.9141 -1.269 0.3591
                    CHANNELS 6 Xposition Yposition Zposition Zrotation Xrotation Yrotation
                    JOINT lPinky2
                    {
                      OFFSET 3.1477 -1.685 0.8462
                      CHANNELS 6 Xposition Yposition Zposition Zrotation Xrotation Yrotation
                      JOINT lPinky2_End
                      {
                        OFFSET 0.8055 -1.585 0.7955
                        CHANNELS 6 Xposition Yposition Zposition Zrotation Xrotation Yrotation
                        End Site
                        {
                          OFFSET 0.0081 -0.0158 0.008
                        }
                      }
                    }
                  }
                }
              }
            }
          }
        }
        JOINT rCollar
        {
          OFFSET -1.7069 20.075 5.0056
          CHANNELS 6 Xposition Yposition Zposition Zrotation Xrotation Yrotation
          JOINT rShldr
          {
            OFFSET -13.6458 -0.047 -4.849
            CHANNELS 6 Xposition Yposition Zposition Zrotation Xrotation Yrotation
            JOINT rForeArm
            {
              OFFSET -28.3255 -0.9759 2.2888
              CHANNELS 6 Xposition Yposition Zposition Zrotation Xrotation Yrotation
              JOINT rHand
              {
                OFFSET -22.1583 -0.53 10.8316
                CHANNELS 6 Xposition Yposition Zposition Zrotation Xrotation Yrotation
                JOINT rThumb1
                {
                  OFFSET -0.786 0.112 2.5817
                  CHANNELS 6 Xposition Yposition Zposition Zrotation Xrotation Yrotation
                  JOINT rThumb2
                  {
                    OFFSET -0.3601 -0.878 4.2331
                    CHANNELS 6 Xposition Yposition Zposition Zrotation Xrotation Yrotation
                    JOINT rThumb2_End
                    {
                      OFFSET -1.8127 -1.216 2.2227
                      CHANNELS 6 Xposition Yposition Zposition Zrotation Xrotation Yrotation
                      End Site
                      {
                        OFFSET -0.0181 -0.0122 0.0222
                      }
                    }
                  }
                }
                JOINT rCarpal1
                {
                  OFFSET -0.9571 1.114 1.7695
                  CHANNELS 6 Xposition Yposition Zposition Zrotation Xrotation Yrotation
                  JOINT rIndex1
                  {
                    OFFSET -4.1246 0.487 4.1451
                    CHANNELS 6 Xposition Yposition Zposition Zrotation Xrotation Yrotation
                    JOINT rIndex2
                    {
                      OFFSET -3.4052 -1.454 2.7682
                      CHANNELS 6 Xposition Yposition Zposition Zrotation Xrotation Yrotation
                      JOINT rIndex2_End
                      {
                        OFFSET -1.4531 -1.795 1.2713
                        CHANNELS 6 Xposition Yposition Zposition Zrotation Xrotation Yrotation
                        End Site
                        {
                          OFFSET -0.0145 -0.018 0.0127
                        }
                      }
                    }
                  }
                  JOINT rMid1
                  {
                    OFFSET -5.6954 0.21 2.1184
                    CHANNELS 6 Xposition Yposition Zposition Zrotation Xrotation Yrotation
                    JOINT rMid2
                    {
                      OFFSET -3.9766 -1.54 2.3863
                      CHANNELS 6 Xposition Yposition Zposition Zrotation Xrotation Yrotation
                      JOINT rMid2_End
                      {
                        OFFSET -1.4042 -1.926 1.125
                        CHANNELS 6 Xposition Yposition Zposition Zrotation Xrotation Yrotation
                        End Site
                        {
                          OFFSET -0.014 -0.0193 0.0113
                        }
                      }
                    }
                  }
                }
                JOINT rCarpal2
                {
                  OFFSET -2.0956 0.66 -0.3894
                  CHANNELS 6 Xposition Yposition Zposition Zrotation Xrotation Yrotation
                  JOINT rRing1
                  {
                    OFFSET -5.0395 -0.09 2.4971
                    CHANNELS 6 Xposition Yposition Zposition Zrotation Xrotation Yrotation
                    JOINT rRing2
                    {
                      OFFSET -3.7921 -1.552 1.4806
                      CHANNELS 6 Xposition Yposition Zposition Zrotation Xrotation Yrotation
                      JOINT rRing2_End
                      {
                        OFFSET -1.4655 -1.808 0.9609
                        CHANNELS 6 Xposition Yposition Zposition Zrotation Xrotation Yrotation
                        End Site
                        {
                          OFFSET -0.0147 -0.0181 0.0096
                        }
                      }
                    }
                  }
                  JOINT rPinky1
                  {
                    OFFSET -4.9141 -1.269 0.3592
                    CHANNELS 6 Xposition Yposition Zposition Zrotation Xrotation Yrotation
                    JOINT rPinky2
                    {
                      OFFSET -3.1477 -1.685 0.8462
                      CHANNELS 6 Xposition Yposition Zposition Zrotation Xrotation Yrotation
                      JOINT rPinky2_End
                      {
                        OFFSET -0.8055 -1.585 0.7955
                        CHANNELS 6 Xposition Yposition Zposition Zrotation Xrotation Yrotation
                        End Site
                        {
                          OFFSET -0.0081 -0.0158 0.008
                        }
                      }
                    }
                  }
                }
              }
            }
          }
        }
      }
    }
  }
  JOINT lThigh
  {
    OFFSET 8.367 -8.2066 0.5982
    CHANNELS 6 Xposition Yposition Zposition Zrotation Xrotation Yrotation
    JOINT lShin
    {
      OFFSET 2.1923 -43.463 -0.4932
      CHANNELS 6 Xposition Yposition Zposition Zrotation Xrotation Yrotation
      JOINT lFoot
      {
        OFFSET 0.7333 -45.8593 -2.6451
        CHANNELS 6 Xposition Yposition Zposition Zrotation Xrotation Yrotation
        End Site
        {
          OFFSET 2.6618 -4.2699 12.3931
        }
      }
    }
  }
  JOINT rThigh
  {
    OFFSET -8.367 -8.2066 0.5982
    CHANNELS 6 Xposition Yposition Zposition Zrotation Xrotation Yrotation
    JOINT rShin
    {
      OFFSET -2.1923 -43.463 -0.4931
      CHANNELS 6 Xposition Yposition Zposition Zrotation Xrotation Yrotation
      JOINT rFoot
      {
        OFFSET -0.7333 -45.8593 -2.6451
        CHANNELS 6 Xposition Yposition Zposition Zrotation Xrotation Yrotation
        End Site
        {
          OFFSET -2.6618 -4.2699 12.3931
        }
      }
    }
  }
}
MOTION
Frames:	4
Frame Time:	0.0333333
6.57691 32.2802 -20.5992 0 0 -67.0038 3.55271e-015 -1.186 -1.5018 0.0167804 1.94445 0.434164 0 9.964 0.2134 0.0188244 3.88897 0.868502 0 13.134 -3.2573 0.0188242 3.88897 0.868495 -1.77636e-015 20.686 -1.6905 -5.02827 21.9206 0.774174 0 7.238 -0.1237 0.648701 -4.48804 -0.0126673 1.7069 20.075 5.0056 -6.28338 4.48576 -31.5495 13.6458 -0.047 -4.849 -8.49485 4.9961 -26.5565 28.3255 -0.9759 2.2888 -7.11559 10.7077 -44.7341 22.1583 -0.53 10.8316 12.1324 28.8271 -3.1141 0.786 0.112 2.5817 6.36111e-015 3.18055e-015 7.95139e-016 0.3601 -0.878 4.2331 -3.97569e-016 4.77083e-015 1.59028e-015 1.8127 -1.216 2.2227 -1.19271e-015 4.77083e-015 7.95139e-016 0.9571 1.114 1.7695 3.18055e-015 -1.59028e-015 -0 4.1246 0.487 4.1451 4.96962e-015 0 7.95139e-015 3.4052 -1.454 2.7682 8.34896e-015 4.77083e-015 -0 1.4531 -1.795 1.2713 7.7526e-015 3.18055e-015 7.95139e-016 5.6954 0.21 2.1184 4.96962e-015 0 7.95139e-015 3.9766 -1.54 2.3863 8.34896e-015 4.77083e-015 -0 1.4042 -1.926 1.125 7.7526e-015 3.18055e-015 7.95139e-016 2.0956 0.66 -0.3894 3.18055e-015 -1.59028e-015 -0 5.0395 -0.09 2.4971 4.96962e-015 0 7.95139e-015 3.7921 -1.552 1.4806 8.34896e-015 4.77083e-015 -0 1.4655 -1.808 0.9609 7.7526e-015 3.18055e-015 7.95139e-016 4.9141 -1.269 0.3591 4.96962e-015 0 7.95139e-015 3.1477 -1.685 0.8462 8.34896e-015 4.77083e-015 -0 0.8055 -1.585 0.7955 7.7526e-015 3.18055e-015 7.95139e-016 -1.7069 20.075 5.0056 30.7078 4.07193 15.1791 -13.6458 -0.047 -4.849 -47.0899 -44.3772 -24.9081 -28.3255 -0.9759 2.2888 15.4968 6.84178 9.3325 -22.1583 -0.53 10.8316 -42.4402 -31.593 -17.0399 -0.786 0.112 2.5817 3.0542e-006 3.43023e-006 -2.98325e-007 -0.3601 -0.878 4.2331 1.59028e-015 -9.14409e-015 -1.59028e-015 -1.8127 -1.216 2.2227 -7.95139e-016 -7.35503e-015 -3.18055e-015 -0.9571 1.114 1.7695 1.59028e-015 5.96354e-016 4.77083e-015 -4.1246 0.487 4.1451 3.0542e-006 3.43023e-006 -2.98325e-007 -3.4052 -1.454 2.7682 -1.59028e-015 -7.35503e-015 -0 -1.4531 -1.795 1.2713 -1.59028e-015 -7.15625e-015 -0 -5.6954 0.21 2.1184 3.0542e-006 3.43023e-006 -2.98325e-007 -3.9766 -1.54 2.3863 -1.59028e-015 -7.35503e-015 -0 -1.4042 -1.926 1.125 -1.59028e-015 -7.15625e-015 -0 -2.0956 0.66 -0.3894 1.59028e-015 5.96354e-016 4.77083e-015 -5.0395 -0.09 2.4971 3.0542e-006 3.43023e-006 -2.98325e-007 -3.7921 -1.552 1.4806 -1.59028e-015 -7.35503e-015 -0 -1.4655 -1.808 0.9609 -1.59028e-015 -7.15625e-015 -0 -4.9141 -1.269 0.3592 3.0542e-006 3.43023e-006 -2.98325e-007 -3.1477 -1.685 0.8462 -1.59028e-015 -7.35503e-015 -0 -0.8055 -1.585 0.7955 -1.59028e-015 -7.15625e-015 -0 8.367 -8.2066 0.5982 65.7536 -28.3422 65.9358 2.1923 -43.463 -0.4932 171.898 35.6359 -162.372 0.7333 -45.8593 -2.6451 3.42983 68.5302 13.2727 -8.367 -8.2066 0.5982 -23.4653 -52.7902 -31.6403 -2.1923 -43.463 -0.4931 -158.677 37.149 160.398 -0.7333 -45.8593 -2.6451 -2.12904 65.3833 -11.2142 
6.57691 32.2802 -20.5992 0 0 -67.0038 0 -1.186 -1.5018 0.0105628 1.94404 0.109866 0 9.964 0.2134 0.0174079 3.8881 0.219585 0 13.134 -3.2573 0.0174073 3.8881 0.219591 -3.55271e-015 20.686 -1.6905 -5.21281 22.6469 0.838785 -3.55271e-015 7.238 -0.1237 0.670449 -4.63753 -0.0120876 1.7069 20.075 5.0056 -5.80975 4.39542 -30.0084 13.6458 -0.047 -4.849 -8.49486 4.99611 -26.5564 28.3255 -0.9759 2.2888 -7.20398 10.8393 -45.7333 22.1583 -0.53 10.8316 12.2913 28.7537 -3.212 0.786 0.112 2.5817 -2.1383e-007 -1.97885e-006 1.35737e-006 0.3601 -0.878 4.2331 7.85199e-015 0 -7.95139e-016 1.8127 -1.216 2.2227 -1.85781e-006 -2.86617e-007 1.4784e-006 0.9571 1.114 1.7695 -1.68967e-015 -1.59028e-015 -1.59028e-015 4.1246 0.487 4.1451 -2.1383e-007 -1.97885e-006 1.35737e-006 3.4052 -1.454 2.7682 -1.49089e-015 3.18055e-015 -7.95139e-016 1.4531 -1.795 1.2713 -1.85781e-006 -2.86617e-007 1.4784e-006 5.6954 0.21 2.1184 -2.1383e-007 -1.97885e-006 1.35737e-006 3.9766 -1.54 2.3863 -1.49089e-015 3.18055e-015 -7.95139e-016 1.4042 -1.926 1.125 -1.85781e-006 -2.86617e-007 1.4784e-006 2.0956 0.66 -0.3894 -1.68967e-015 -1.59028e-015 -1.59028e-015 5.0395 -0.09 2.4971 -2.1383e-007 -1.97885e-006 1.35737e-006 3.7921 -1.552 1.4806 -1.49089e-015 3.18055e-015 -7.95139e-016 1.4655 -1.808 0.9609 -1.85781e-006 -2.86617e-007 1.4784e-006 4.9141 -1.269 0.3591 -2.1383e-007 -1.97885e-006 1.35737e-006 3.1477 -1.685 0.8462 -1.49089e-015 3.18055e-015 -7.95139e-016 0.8055 -1.585 0.7955 -1.85781e-006 -2.86617e-007 1.4784e-006 -1.7069 20.075 5.0056 30.6965 4.09553 15.0234 -13.6458 -0.047 -4.849 -54.5065 -46.9208 -29.0804 -28.3255 -0.9759 2.2888 15.5014 6.84216 9.3394 -22.1583 -0.53 10.8316 -41.4367 -31.5387 -16.2164 -0.786 0.112 2.5817 8.82781e-032 3.18055e-015 -1.59028e-015 -0.3601 -0.878 4.2331 1.98626e-031 3.57812e-015 -3.18055e-015 -1.8127 -1.216 2.2227 0 4.07509e-015 -0 -0.9571 1.114 1.7695 -5.24151e-032 -1.88845e-015 -1.59028e-015 -4.1246 0.487 4.1451 -7.95139e-016 -1.17283e-014 7.95139e-015 -3.4052 -1.454 2.7682 7.95139e-016 7.35503e-015 -3.18055e-015 -1.4531 -1.795 1.2713 1.19271e-015 4.57205e-015 -1.59028e-015 -5.6954 0.21 2.1184 -7.95139e-016 -1.17283e-014 7.95139e-015 -3.9766 -1.54 2.3863 7.95139e-016 7.35503e-015 -3.18055e-015 -1.4042 -1.926 1.125 1.19271e-015 4.57205e-015 -1.59028e-015 -2.0956 0.66 -0.3894 -5.24151e-032 -1.88845e-015 -1.59028e-015 -5.0395 -0.09 2.4971 -7.95139e-016 -1.17283e-014 7.95139e-015 -3.7921 -1.552 1.4806 7.95139e-016 7.35503e-015 -3.18055e-015 -1.4655 -1.808 0.9609 1.19271e-015 4.57205e-015 -1.59028e-015 -4.9141 -1.269 0.3592 -7.95139e-016 -1.17283e-014 7.95139e-015 -3.1477 -1.685 0.8462 7.95139e-016 7.35503e-015 -3.18055e-015 -0.8055 -1.585 0.7955 1.19271e-015 4.57205e-015 -1.59028e-015 8.367 -8.2066 0.5982 65.7538 -28.3422 65.9358 2.1923 -43.463 -0.4932 171.898 35.6358 -162.372 0.7333 -45.8593 -2.6451 3.42981 68.5303 13.2727 -8.367 -8.2066 0.5982 -23.4652 -52.7903 -31.6403 -2.1923 -43.463 -0.4931 -158.677 37.149 160.398 -0.7333 -45.8593 -2.6451 -2.12903 65.3833 -11.2143 
6.57691 32.2802 -20.5992 0 0 -67.0038 0 -1.186 -1.5018 0.00435654 1.94363 -0.2142 -3.55271e-015 9.964 0.2134 0.0160019 3.88723 -0.428914 0 13.134 -3.2573 0.0160004 3.88723 -0.428911 0 20.686 -1.6905 -5.39909 23.3723 0.906234 3.55271e-015 7.238 -0.1237 0.692203 -4.78701 -0.0114252 1.7069 20.075 5.0056 -5.33522 4.318 -28.4709 13.6458 -0.047 -4.849 -8.49486 4.99611 -26.5565 28.3255 -0.9759 2.2888 -7.28995 10.9723 -46.7316 22.1583 -0.53 10.8316 12.4499 28.68 -3.30959 0.786 0.112 2.5817 6.36111e-015 1.59028e-015 -0 0.3601 -0.878 4.2331 -6.19838e-007 -2.37677e-007 1.5984e-006 1.8127 -1.216 2.2227 5.26779e-015 -4.77083e-015 -0 0.9571 1.114 1.7695 6.26172e-015 0 -0 4.1246 0.487 4.1451 -8.34896e-015 1.59028e-015 5.96354e-015 3.4052 -1.454 2.7682 -6.19838e-007 -2.37677e-007 1.5984e-006 1.4531 -1.795 1.2713 3.8763e-015 -6.36111e-015 -7.95139e-016 5.6954 0.21 2.1184 -8.34896e-015 1.59028e-015 5.96354e-015 3.9766 -1.54 2.3863 -6.19838e-007 -2.37677e-007 1.5984e-006 1.4042 -1.926 1.125 3.8763e-015 -6.36111e-015 -7.95139e-016 2.0956 0.66 -0.3894 6.26172e-015 0 -0 5.0395 -0.09 2.4971 -8.34896e-015 1.59028e-015 5.96354e-015 3.7921 -1.552 1.4806 -6.19838e-007 -2.37677e-007 1.5984e-006 1.4655 -1.808 0.9609 3.8763e-015 -6.36111e-015 -7.95139e-016 4.9141 -1.269 0.3591 -8.34896e-015 1.59028e-015 5.96354e-015 3.1477 -1.685 0.8462 -6.19838e-007 -2.37677e-007 1.5984e-006 0.8055 -1.585 0.7955 3.8763e-015 -6.36111e-015 -7.95139e-016 -1.7069 20.075 5.0056 30.6852 4.11918 14.8677 -13.6458 -0.047 -4.849 -62.5716 -49.06 -33.9365 -28.3255 -0.9759 2.2888 15.5061 6.84255 9.34633 -22.1583 -0.53 10.8316 -40.4357 -31.4721 -15.3953 -0.786 0.112 2.5817 -1.49089e-016 1.62755e-015 3.18055e-015 -0.3601 -0.878 4.2331 -1.49089e-016 8.44835e-016 3.18055e-015 -1.8127 -1.216 2.2227 -1.98785e-016 1.6524e-015 1.59028e-015 -0.9571 1.114 1.7695 4.96962e-017 7.82715e-016 1.59028e-015 -4.1246 0.487 4.1451 4.96962e-017 2.41026e-015 1.43125e-014 -3.4052 -1.454 2.7682 -3.47873e-016 8.44835e-016 3.18055e-015 -1.4531 -1.795 1.2713 9.93923e-017 2.48481e-015 1.59028e-015 -5.6954 0.21 2.1184 4.96962e-017 2.41026e-015 1.43125e-014 -3.9766 -1.54 2.3863 -3.47873e-016 8.44835e-016 3.18055e-015 -1.4042 -1.926 1.125 9.93923e-017 2.48481e-015 1.59028e-015 -2.0956 0.66 -0.3894 4.96962e-017 7.82715e-016 1.59028e-015 -5.0395 -0.09 2.4971 4.96962e-017 2.41026e-015 1.43125e-014 -3.7921 -1.552 1.4806 -3.47873e-016 8.44835e-016 3.18055e-015 -1.4655 -1.808 0.9609 9.93923e-017 2.48481e-015 1.59028e-015 -4.9141 -1.269 0.3592 4.96962e-017 2.41026e-015 1.43125e-014 -3.1477 -1.685 0.8462 -3.47873e-016 8.44835e-016 3.18055e-015 -0.8055 -1.585 0.7955 9.93923e-017 2.48481e-015 1.59028e-015 8.367 -8.2066 0.5982 65.7538 -28.3422 65.9358 2.1923 -43.463 -0.4932 171.898 35.6358 -162.372 0.7333 -45.8593 -2.6451 3.42981 68.5303 13.2727 -8.367 -8.2066 0.5982 -23.4652 -52.7903 -31.6403 -2.1923 -43.463 -0.4931 -158.677 37.149 160.398 -0.7333 -45.8593 -2.6451 -2.12905 65.3833 -11.2142 
6.57691 32.2802 -20.5992 0 0 -67.0038 0 -1.186 -1.5018 -0.00183884 1.94318 -0.538018 3.55271e-015 9.964 0.2134 0.0146049 3.8863 -1.0769 -3.55271e-015 13.134 -3.2573 0.0146022 3.8863 -1.0769 0 20.686 -1.6905 -5.58686 24.0965 0.976462 0 7.238 -0.1237 0.713969 -4.93649 -0.0107181 1.7069 20.075 5.0056 -4.86029 4.25361 -26.9377 13.6458 -0.047 -4.849 -8.49486 4.99611 -26.5564 28.3255 -0.9759 2.2888 -7.3735 11.1065 -47.729 22.1583 -0.53 10.8316 12.6083 28.606 -3.40688 0.786 0.112 2.5817 -3.03147e-015 -1.59028e-015 3.97569e-016 0.3601 -0.878 4.2331 -2.98177e-015 -1.59028e-015 -0 1.8127 -1.216 2.2227 -2.98177e-015 -1.59028e-015 -0 0.9571 1.114 1.7695 -3.13086e-015 0 7.95139e-016 4.1246 0.487 4.1451 -7.85199e-015 -1.59028e-015 6.55989e-015 3.4052 -1.454 2.7682 -1.3418e-015 -3.18055e-015 -5.96354e-016 1.4531 -1.795 1.2713 -1.19271e-015 -3.18055e-015 -1.98785e-016 5.6954 0.21 2.1184 -7.85199e-015 -1.59028e-015 6.55989e-015 3.9766 -1.54 2.3863 -1.3418e-015 -3.18055e-015 -5.96354e-016 1.4042 -1.926 1.125 -1.19271e-015 -3.18055e-015 -1.98785e-016 2.0956 0.66 -0.3894 -3.13086e-015 0 7.95139e-016 5.0395 -0.09 2.4971 -7.85199e-015 -1.59028e-015 6.55989e-015 3.7921 -1.552 1.4806 -1.3418e-015 -3.18055e-015 -5.96354e-016 1.4655 -1.808 0.9609 -1.19271e-015 -3.18055e-015 -1.98785e-016 4.9141 -1.269 0.3591 -7.85199e-015 -1.59028e-015 6.55989e-015 3.1477 -1.685 0.8462 -1.3418e-015 -3.18055e-015 -5.96354e-016 0.8055 -1.585 0.7955 -1.19271e-015 -3.18055e-015 -1.98785e-016 -1.7069 20.075 5.0056 30.674 4.14296 14.712 -13.6458 -0.047 -4.849 -71.2137 -50.7043 -39.4092 -28.3255 -0.9759 2.2888 15.5108 6.84293 9.35321 -22.1583 -0.53 10.8316 -39.4377 -31.3934 -14.5772 -0.786 0.112 2.5817 -3.97569e-016 -1.98785e-015 -3.18055e-015 -0.3601 -0.878 4.2331 -3.97569e-016 -1.68967e-015 -0 -1.8127 -1.216 2.2227 -0 -1.98785e-015 -0 -0.9571 1.114 1.7695 -3.97569e-016 -1.98785e-016 -3.18055e-015 -4.1246 0.487 4.1451 -0 -1.98785e-016 -0 -3.4052 -1.454 2.7682 3.97569e-016 -1.88845e-015 -0 -1.4531 -1.795 1.2713 -0 -1.68967e-015 -0 -5.6954 0.21 2.1184 -0 -1.98785e-016 -0 -3.9766 -1.54 2.3863 3.97569e-016 -1.88845e-015 -0 -1.4042 -1.926 1.125 -0 -1.68967e-015 -0 -2.0956 0.66 -0.3894 -3.97569e-016 -1.98785e-016 -3.18055e-015 -5.0395 -0.09 2.4971 -0 -1.98785e-016 -0 -3.7921 -1.552 1.4806 3.97569e-016 -1.88845e-015 -0 -1.4655 -1.808 0.9609 -0 -1.68967e-015 -0 -4.9141 -1.269 0.3592 -0 -1.98785e-016 -0 -3.1477 -1.685 0.8462 3.97569e-016 -1.88845e-015 -0 -0.8055 -1.585 0.7955 -0 -1.68967e-015 -0 8.367 -8.2066 0.5982 65.7538 -28.3422 65.9358 2.1923 -43.463 -0.4932 171.898 35.6358 -162.372 0.7333 -45.8593 -2.6451 3.42981 68.5303 13.2727 -8.367 -8.2066 0.5982 -23.4652 -52.7903 -31.6403 -2.1923 -43.463 -0.4931 -158.677 37.149 160.398 -0.7333 -45.8593 -2.6451 -2.12903 65.3833 -11.2143 
